curl
version=1
nRows=191
nColumns=3
inDegrees=yes
endheader
time	r_shoulder_elev	r_elbow_flex
0.0000	27.878823	0.000000
0.0100	27.917713	0.000000
0.0200	27.956868	0.000000
0.0300	27.996106	0.000000
0.0400	28.035249	0.000000
0.0500	28.074119	0.000000
0.0600	28.112546	0.000000
0.0700	28.150362	0.000000
0.0800	28.187411	0.000000
0.0900	28.223544	0.000000
0.1000	28.258625	0.000000
0.1100	28.292528	0.000000
0.1200	28.325142	0.000000
0.1300	28.356368	0.000000
0.1400	28.386122	0.000000
0.1500	28.414334	0.000000
0.1600	28.440952	0.000000
0.1700	28.465933	0.000000
0.1800	28.489254	0.000000
0.1900	28.510904	0.000000
0.2000	28.530885	0.000000
0.2100	28.549214	0.000000
0.2200	28.565920	0.000000
0.2300	28.581043	0.000000
0.2400	28.594636	0.000000
0.2500	28.606759	0.000000
0.2600	28.617481	0.000000
0.2700	28.626882	0.000000
0.2800	28.635046	0.000000
0.2900	28.642060	0.000000
0.3000	28.648019	0.000000
0.3100	28.653018	0.000000
0.3200	28.657155	0.000000
0.3300	28.660527	0.000000
0.3400	28.663230	0.000000
0.3500	28.665359	0.000000
0.3600	28.667004	0.000000
0.3700	28.668250	0.000000
0.3800	28.669180	0.000000
0.3900	28.669868	0.000000
0.4000	28.670381	0.000000
0.4100	28.670780	0.000000
0.4200	28.671116	0.000000
0.4300	28.671435	0.000000
0.4400	28.671769	0.000000
0.4500	28.672147	0.000000
0.4600	28.672584	0.000000
0.4700	28.673090	0.000000
0.4800	28.673666	0.000000
0.4900	28.674305	0.000000
0.5000	28.674992	0.000000
0.5100	28.675705	0.000000
0.5200	28.676419	0.000000
0.5300	28.677101	0.000000
0.5400	28.677715	0.000000
0.5500	28.678221	0.000000
0.5600	28.678577	0.000000
0.5700	28.678741	0.000000
0.5800	28.678669	0.000000
0.5900	28.678319	0.000000
0.6000	28.677648	0.000000
0.6100	28.676618	0.000000
0.6200	28.675194	0.000000
0.6300	28.673345	0.000000
0.6400	28.671045	0.000000
0.6500	28.668272	0.000000
0.6600	28.665012	0.000000
0.6700	28.661258	0.000000
0.6800	28.657009	0.000000
0.6900	28.652271	0.000000
0.7000	28.647058	0.000000
0.7100	28.641393	0.000000
0.7200	28.635304	0.000000
0.7300	28.628831	0.000000
0.7400	28.622016	0.000000
0.7500	28.614913	0.000000
0.7600	28.607582	0.000000
0.7700	28.600089	0.000000
0.7800	28.592506	0.000000
0.7900	28.584915	0.000000
0.8000	28.577399	0.000000
0.8100	28.570050	0.000000
0.8200	28.562963	0.000000
0.8300	28.556238	0.000000
0.8400	28.549981	0.000000
0.8500	28.544299	0.000000
0.8600	28.539304	0.000000
0.8700	28.535109	0.000000
0.8800	28.531830	0.000000
0.8900	28.529585	0.000000
0.9000	28.528491	0.000000
0.9100	28.528667	0.000000
0.9200	28.530230	0.000000
0.9300	28.533295	0.000000
0.9400	28.537975	0.000000
0.9500	28.544379	0.000000
0.9600	28.552611	0.000000
0.9700	28.562768	0.000000
0.9800	28.574942	0.000000
0.9900	28.589214	0.000000
1.0000	28.605654	0.000000
1.0100	28.624323	0.000000
1.0200	28.645264	0.000000
1.0300	28.668509	0.000000
1.0400	28.694072	0.000000
1.0500	28.721948	0.000000
1.0600	28.752113	0.000000
1.0700	28.784523	0.000000
1.0800	28.819111	0.000000
1.0900	28.855790	0.000000
1.1000	28.894446	0.000000
1.1100	28.934945	0.000000
1.1200	28.977128	0.000000
1.1300	29.020813	0.000000
1.1400	29.065796	0.000000
1.1500	29.111852	0.000000
1.1600	29.158734	0.000000
1.1700	29.206179	0.000000
1.1800	29.253904	0.000000
1.1900	29.301614	0.000000
1.2000	29.348998	0.000000
1.2100	29.395738	0.000000
1.2200	29.441504	0.000000
1.2300	29.485963	0.000000
1.2400	29.528777	0.000000
1.2500	29.569608	0.016270
1.2600	29.608117	0.128369
1.2700	29.643972	0.244265
1.2800	29.676844	0.364028
1.2900	29.706414	0.487733
1.3000	29.732373	0.615453
1.3100	29.754424	0.747270
1.3200	29.772283	0.883271
1.3300	29.785684	1.023554
1.3400	29.794379	1.168228
1.3500	29.798138	1.317413
1.3600	29.796755	1.471241
1.3700	29.790046	1.629858
1.3800	29.777850	1.793422
1.3900	29.760037	1.962100
1.4000	29.736499	2.136068
1.4100	29.707162	2.315509
1.4200	29.671979	2.500608
1.4300	29.630935	2.691549
1.4400	29.584049	2.888508
1.4500	29.531371	3.091655
1.4600	29.472984	3.301139
1.4700	29.409008	3.517093
1.4800	29.339592	3.739622
1.4900	29.264923	3.968799
1.5000	29.185218	4.204667
1.5100	29.100730	4.447227
1.5200	29.011740	4.696442
1.5300	28.918560	4.952233
1.5400	28.821532	5.214478
1.5500	28.721023	5.483014
1.5600	28.617424	5.757639
1.5700	28.511148	6.038113
1.5800	28.402628	6.324168
1.5900	28.292312	6.615507
1.6000	28.180661	6.911817
1.6100	28.068146	7.212773
1.6200	27.955246	7.518052
1.6300	27.842444	7.827338
1.6400	27.730222	8.140333
1.6500	27.619062	8.456773
1.6600	27.509440	8.776434
1.6700	27.401823	9.099147
1.6800	27.296669	9.424809
1.6900	27.194423	9.753397
1.7000	27.095513	10.084976
1.7100	27.000350	10.419715
1.7200	26.909322	10.757896
1.7300	26.822798	11.099928
1.7400	26.741118	11.446353
1.7500	26.664598	11.797855
1.7600	26.593524	12.155272
1.7700	26.528153	12.519596
1.7800	26.468711	12.891981
1.7900	26.415392	13.273743
1.8000	26.368360	13.666357
1.8100	26.327748	14.071459
1.8200	26.293658	14.490836
1.8300	26.266163	14.926422
1.8400	26.245310	15.380283
1.8500	26.231120	15.854605
1.8600	26.223592	16.351682
1.8700	26.222706	16.873891
1.8800	26.228424	17.423677
1.8900	26.240696	18.003527
1.9000	26.259464	18.615941
